<svg xmlns="http://www.w3.org/2000/svg" width="256" height="256" viewBox="0 0 100 100">
  <style>
    @media (prefers-color-scheme: dark) {.a {fill:#fff;} .b {fill: #000;}}
  </style>
  <rect class="a" width="100" height="100" rx="20" fill="#000"></rect>
  <path class="b" fill="#fff"
    d="M29.57 89.38Q19.04 89.38 14.36 84.16Q9.68 78.94 9.68 67.33L9.68 67.33L9.68 59.77L24.89 59.77L24.89 69.40Q24.89 75.16 28.58 75.16L28.58 75.16Q30.65 75.16 31.46 73.94Q32.27 72.72 32.27 69.84L32.27 69.84Q32.27 66.06 31.37 63.59Q30.47 61.12 29.07 59.45Q27.68 57.79 24.08 54.28L24.08 54.28L17.42 47.62Q9.68 40.05 9.68 30.88L9.68 30.88Q9.68 20.98 14.22 15.80Q18.77 10.63 27.50 10.63L27.50 10.63Q37.94 10.63 42.53 16.16Q47.12 21.70 47.12 33.49L47.12 33.49L31.37 33.49L31.28 28.18Q31.28 26.65 30.42 25.75Q29.57 24.85 28.04 24.85L28.04 24.85Q26.24 24.85 25.34 25.84Q24.44 26.83 24.44 28.54L24.44 28.54Q24.44 32.32 28.76 36.37L28.76 36.37L37.76 45.01Q40.91 48.07 42.98 50.81Q45.05 53.55 46.31 57.29Q47.57 61.03 47.57 66.16L47.57 66.16Q47.57 77.59 43.38 83.48Q39.20 89.38 29.57 89.38L29.57 89.38ZM52.70 88.66L52.70 11.34L73.13 11.34Q82.40 11.34 86.36 17.33Q90.32 23.31 90.32 34.84L90.32 34.84Q90.32 46.36 86.81 52.21Q83.30 58.06 74.21 58.06L74.21 58.06L67.91 58.06L67.91 88.66L52.70 88.66ZM67.91 44.11L68.81 44.11Q71.60 44.11 72.91 43.07Q74.21 42.04 74.61 40.10Q75.02 38.17 75.02 34.57L75.02 34.57Q75.02 29.71 73.94 27.55Q72.86 25.39 69.62 25.39L69.62 25.39L67.91 25.39L67.91 44.11Z">
  </path>
</svg>