<svg xmlns="http://www.w3.org/2000/svg"><defs><font id="webfontSTdD4QCq" horiz-adv-x="978"><font-face units-per-em="2048" ascent="1536" descent="-512"/><glyph horiz-adv-x="419"/><glyph horiz-adv-x="419"/><glyph horiz-adv-x="419"/><glyph unicode="!" horiz-adv-x="514" d="M147 133q0 76 40 115t106 39q72 0 110.5-39T442 133q0-74-40-115T293-23q-68 0-107 41t-39 115zm23 627v674h252V760l-49-334H219z"/><glyph unicode="&quot;" horiz-adv-x="718" d="M150 991v443h210l-63-443H150zm274 0v443h211l-64-443H424z"/><glyph unicode="#" d="M31 420l43 194h119l45 226H115l43 194h116l60 295h201l-60-295h141l60 295h198l-59-295h121l-45-194H778l-45-226h119l-45-194H696l-61-316H434l62 316H354l-61-316H94l62 316H31zm362 194h142l43 226H436z"/><glyph unicode="$" d="M111 1075q0 160 77.5 253T397 1450v188h195v-180q72-4 127-19.5t104-39.5l-67-213q-31 16-72 29.5t-92 19.5V831q53-33 105.5-70.5T792 672t68.5-117T887 401q0-176-80-278.5T592-12v-193H397v178q-98 4-167.5 23.5T119 43l67 219q31-23 85.5-41T397 195v450q-53 31-104 68t-91 87-65.5 116.5T111 1075zm243 17q0-63 37-107.5t92-83.5v338q-74-8-101.5-52t-27.5-95zm154-895q66 12 98.5 60T639 375t-37 116-94 84V197z"/><glyph unicode="%" horiz-adv-x="1474" d="M84 1110q0 94 22.5 159.5T170 1377t97.5 61.5T391 1458q68 0 124.5-17.5T613 1382t64.5-107.5T701 1110t-23.5-164.5T613 838t-97.5-58.5T391 762t-124 17.5-97 58.5-63.5 107.5T84 1110zm217 0q0-98 21.5-138t68.5-40q25 0 42.5 7t28.5 27.5 16.5 55.5 5.5 88q0 104-22.5 141t-70.5 37q-47 0-68.5-37T301 1110zm495-760q0 94 22.5 159.5T882 617t97.5 61.5T1103 698q68 0 124.5-17.5T1325 622t64.5-107.5T1413 350t-23.5-164.5T1325 78t-97.5-58.5T1103 2 979 19.5 882 78t-63.5 107.5T796 350zm217 0q0-98 21.5-138t68.5-40q25 0 42.5 7t28.5 27.5 16.5 55.5 5.5 88q0 104-22.5 141t-70.5 37q-47 0-68.5-37T1013 350zm165 1112l143-119L309-29 164 92z"/><glyph unicode="&amp;" horiz-adv-x="1374" d="M143 397q0 78 21.5 147.5t60.5 131 91.5 114T428 883q-43 68-70.5 139.5T330 1171q0 51 16 103.5t53 94.5 95.5 67.5T637 1462q80 0 137-21.5t93-57 52.5-83T936 1202q0-86-51-177T717 848q51-96 109.5-193.5T956 467q39 51 66 121.5t49 146.5l182-84q-10-37-28.5-84t-40.5-93l-45-88q-23-42-43-71 51-59 95-95t87-62L1153-29q-55 27-107.5 70T944 141Q883 71 794 21T571-29q-92 0-170.5 28t-136 82T175 215t-32 182zm244 19q0-104 58.5-162.5T598 195q66 0 121 33.5t84 74.5q-82 109-148.5 212T541 717q-72-72-113-140.5T387 416zm186 743q0-90 60-184 59 51 85.5 97t26.5 87q0 47-21.5 77t-66.5 30q-41 0-62.5-30t-21.5-77z"/><glyph unicode="'" horiz-adv-x="444" d="M150 991v443h210l-63-443H150z"/><glyph unicode="(" horiz-adv-x="569" d="M98 498q0 113 15.5 237.5T163 986t88 247 134 225l164-92q-55-96-94-203.5T390.5 942t-37-226.5T342 498q0-98 12.5-211t37-226.5 64.5-220T551-352l-170-99q-78 98-131 216T163 7t-49.5 250T98 498z"/><glyph unicode=")" horiz-adv-x="569" d="M18-356q61 102 101.5 210.5t64 219T217 295t10 215q0 98-12 212t-38.5 227.5-65.5 220T18 1364l170 94q78-98 131.5-216t87-241.5 49-249.5T471 510q0-113-15.5-238t-49-250.5-88-246.5T184-451z"/><glyph unicode="*" horiz-adv-x="661" d="M59 1118v146h111l102-33-92 84-51 96 123 72 49-88 27-115 22 106 53 97 121-70-55-100-86-82 113 31h106v-144H500l-107 33 92-92 45-82-122-72-50 88-32 125-21-112-53-97-123 72 55 98 80 70-96-31H59z"/><glyph unicode="+" horiz-adv-x="909" d="M70 586v217h272v299h225V803h273V586H567V285H342v301H70z"/><glyph unicode="," horiz-adv-x="401" d="M57-203q47 25 84 79t41 110q-43-2-78.5 33.5T68 133q0 70 41 110t102 40q78 0 120-55.5T373 74q0-90-25.5-155.5t-62.5-110-79-71-73-38.5z"/><glyph unicode="-" horiz-adv-x="610" d="M92 471v234h426V471H92z"/><glyph unicode="." horiz-adv-x="393" d="M70 133q0 76 40 115t105 39q72 0 111-39t39-115q0-74-40-115T215-23q-68 0-106.5 41T70 133z"/><glyph unicode="/" horiz-adv-x="714" d="M-37-215l602 1673 187-72L152-287z"/><glyph unicode="0" d="M72 719q0 201 27.5 342t80.5 230 131 130 178 41q106 0 185.5-41T806 1291t77.5-230T909 719q0-203-28.5-345.5t-82-231.5-131-130T489-29q-106 0-185 42T174 146.5 97.5 379 72 719zm243 0q0-274 41-402.5T492 188q45 0 78.5 29t54 92.5 31 163.5T666 719q0 272-40 399t-137 127q-47 0-79.5-28.5t-53-92-31-164T315 719z"/><glyph unicode="1" d="M106 1073l396 385h143V217h229V0H178v217h234v805l26 139-84-121-135-104z"/><glyph unicode="2" d="M123 1337q66 57 151.5 91t202.5 34q74 0 137.5-23.5T724 1368t72.5-116.5T823 1090q0-106-30.5-218T714 653.5t-105.5-203T496 281l-90-84v-11l122 31h318V0H127v141q43 53 93 122l100.5 145.5L418 568l83 166 57.5 163 21.5 150q0 86-41 139t-127 53q-53 0-106.5-23.5T215 1159z"/><glyph unicode="3" d="M133 35l66 205q43-23 94-37.5T410 188q100 0 152 68t52 172q0 231-229 231H264v140l203 344 98 92-135-18H150v217h655v-146L567 901l-75-55v-10l75 12q57-4 110.5-30.5t93.5-76 63.5-123T858 444q0-121-33.5-209t-92-147T595 0 426-29q-76 0-160 16.5T133 35z"/><glyph unicode="4" d="M35 399v152l524 893h213V608h180V399H772V0H541v399H35zm215 193l104 16h187v318l22 184h-8l-61-166-162-274z"/><glyph unicode="5" d="M117 27l63 206q76-39 195-38 111 0 168 71.5T600 451q0 129-67.5 186T338 694l-133-8v748h596v-238H414V903l67 8q166-6 264.5-122.5T844 461q0-121-35-213T713.5 94.5 569 2 387-29q-74 0-148.5 15.5T117 27z"/><glyph unicode="6" d="M88 514q0 209 50 374t135 283.5T468 1363t230 99l62-198q-80-20-149.5-65.5t-125-109T392 945t-56-171q35 49 88 80t131 31q74 0 136.5-27T800 776t71.5-138T897 444q0-109-29.5-196.5t-82-149T660.5 4 502-29q-90 0-166 32t-131 97.5-86 169T88 514zm236-55q0-53 10-101.5t31.5-86.5 53.5-60.5 77-22.5q74 0 120 62.5T662 430q0 125-42 181.5T492 668q-61 0-104.5-35T326 551q-2-23-2-46v-46z"/><glyph unicode="7" d="M106 1200v234h777v-78L418 0H180l387 1120 74 101-102-21H106z"/><glyph unicode="8" d="M102 344q0 74 16.5 132.5T164 581t64.5 82.5T305 731q-80 63-126 146.5T133 1083q0 174 97.5 276.5T498 1462q156 0 252-90t96-256q0-121-45-205T672 756q102-72 153.5-162T877 367q0-92-30-166T765 76 641-2 485-29q-86 0-155.5 26T209 70t-79 116.5T102 344zm224 47q0-86 43-144.5T489 188q70 0 111 44t41 135q0 51-16.5 92t-44 72.5T519 590l-66 51q-72-55-99.5-119.5T326 391zm41 688q0-47 13-82.5t35.5-64.5 52.5-52.5 62-43.5q47 55 71 109t24 124q0 84-38 130t-91 46q-68 0-98.5-50T367 1079z"/><glyph unicode="9" d="M76 985q0 217 103.5 347T477 1462q190 0 304-135t114-405q0-238-51-411T707 223.5t-199-176T274-29l-57 205q184 37 286.5 161T635 637q-39-51-84-71.5T434 545q-63 0-127.5 25.5t-116 80-83 137T76 985zm235 14q0-117 50.5-177T489 762q59 0 100.5 21.5T653 844q4 23 5 47t1 47q0 63-10 119.5t-32.5 97.5-57.5 65.5-84 24.5q-78 0-121-65.5T311 999z"/><glyph unicode=":" horiz-adv-x="514" d="M158 874q0 76 40 115t105 39q72 0 111-39t39-115q0-74-40-115t-110-41q-68 0-106.5 41T158 874zm0-741q0 76 40 115t105 39q72 0 111-39t39-115q0-74-40-115T303-23q-68 0-106.5 41T158 133z"/><glyph unicode=";" horiz-adv-x="514" d="M137-203q47 25 84 79t41 110q-43-2-78.5 33.5T148 133q0 70 41 110t102 40q78 0 120-55.5T453 74q0-90-25.5-155.5t-62.5-110-79-71-73-38.5zm13 1077q0 76 40 115t105 39q72 0 111-39t39-115q0-74-40-115t-110-41q-68 0-106.5 41T150 874z"/><glyph unicode="&lt;" horiz-adv-x="909" d="M72 584v143l637 455 122-166-380-285-154-72 152-63 391-281-123-165z"/><glyph unicode="=" horiz-adv-x="909" d="M78 1002h753V785H78v217zm0-392h753V393H78v217z"/><glyph unicode="&gt;" horiz-adv-x="909" d="M70 1018l127 162 641-432V604L205 154 78 317l383 283 151 74-151 61z"/><glyph unicode="?" horiz-adv-x="782" d="M39 1350q63 47 149 79.5t209 32.5q164 0 257.5-89t93.5-251q0-96-23-162.5T667.5 843 593 752t-74-86-57.5-102.5T438 426H231q-8 94 8.5 165t45 125 65.5 97l70 85q33 42 54.5 88t21.5 104q0 72-34 113.5T350 1245q-53 0-112.5-21.5T135 1165zM199 133q0 76 40 115t105 39q72 0 111-39t39-115q0-74-40-115T344-23q-68 0-106.5 41T199 133z"/><glyph unicode="@" horiz-adv-x="1804" d="M117 483q0 215 68.5 385t183 287 264 178.5T946 1395q156 0 292-46t235.5-137.5 157-227.5 57.5-316q0-135-40-251t-107.5-199-159-130T1188 41q-84 0-142.5 43T991 233h-6q-47-78-113.5-135T709 41q-88 0-149.5 78T498 336q0 137 33.5 258t91 212 133 144.5T918 1004q57 0 98-20.5t76-55.5l51 63h135l-80-559q-25-186 59-186 41 0 81 24.5t72 75.5 51.5 131 19.5 191q0 141-40 242.5t-112 166-170 95-215 30.5q-131 0-244.5-52T503 1003.5 372 778t-48-291q0-313 155.5-477T915-154q53 0 118 14.5T1149-98l59-178q-66-35-143.5-52.5T889-346q-162 0-302.5 49T342-146.5t-164.5 258T117 483zm606-88q0-72 23.5-110.5T819 246q45 0 91 50t77 112l47 348q-37 43-96 43-47 0-86-34t-67.5-90.5-45-129T723 395z"/><glyph unicode="A" horiz-adv-x="1026" d="M-6 0l416 1444h202L1030 0H760l-88 324H334L250 0H-6zm395 537h238l-82 333-33 226h-8l-35-228z"/><glyph unicode="B" horiz-adv-x="1003" d="M92 10v1413q68 12 167 21.5t198 9.5q90 0 173-14.5t145.5-53 99-107.5 36.5-177q0-53-11-105.5T864.5 898 800 817t-95-53v-12q49-12 93-37t76.5-67 52-102.5T946 403q0-111-38-191.5T805.5 80 655 4.5 473-20h-74q-45 0-97 3T194.5-8 92 10zm258 205q16-6 56-9t73-3q86 0 141.5 55T676 420q0 68-18.5 107.5t-49 61-70.5 28-83 6.5H350V215zm0 610h60q23 0 52.5 3t47.5 8q59 23 101 74t42 132q0 53-14 90t-39 58.5-58.5 31-72.5 9.5q-84 0-119-8V825z"/><glyph unicode="C" horiz-adv-x="935" d="M59 719q0 217 46.5 360.5t121 228.5 171 119.5T592 1462q100 0 175-16t122-37l-51-227q-39 20-91.5 31.5T623 1225q-141 0-217-123t-76-385q0-113 17.5-206t55-160.5 96-104.5T639 209q72 0 123 19.5t92 45.5l51-217Q852 12 763-8.5T586-29Q475-29 380 9T213 135 100 366.5 59 719z"/><glyph unicode="D" horiz-adv-x="1095" d="M92-2v1436q37 6 83 9l94 6q48 3 93.5 4t79.5 1q170 0 284-52t182.5-147.5 97-228.5 28.5-297q0-150-27.5-286t-97-239.5T721 38.5 422-23q-27 0-72 2.5T256-15l-94 6q-45 3-70 7zm258 225q6-2 21.5-3t33-2 33-2 21.5-1q92 0 151.5 43t93 114.5 47 165T764 733q0 94-11.5 182.5t-43 155-90 106.5-150.5 40q-33 0-66.5-1.5T350 1210V223z"/><glyph unicode="E" horiz-adv-x="880" d="M92 0v1434h717v-238H350V844h416V606H350V238h467V0H92z"/><glyph unicode="F" horiz-adv-x="858" d="M92 0v1434h717v-238H350V823h422V586H350V0H92z"/><glyph unicode="G" horiz-adv-x="1028" d="M59 717q0 205 45.5 346t120 230 174 129 209.5 40q98 0 179-17.5t135-39.5l-54-223q-41 18-95 30.5T641 1225q-72 0-130-29t-98-90.5T351.5 947 330 715q0-260 78.5-383T616 209q41 0 79 12t67 39v293l-236 33v155h443V106Q893 34 791.5 2.5T590-29q-121 0-219.5 43t-167 134.5T97 380 59 717z"/><glyph unicode="H" horiz-adv-x="1091" d="M92 0v1434h258V844h391v590h258V0H741v606H350V0H92z"/><glyph unicode="I" horiz-adv-x="487" d="M115 0v1434h258V0H115z"/><glyph unicode="J" horiz-adv-x="591" d="M-35 23l60 217q43-27 100-27 72 0 89 60.5T231 446v988h258V391q0-94-15-171T424 89 331.5 5 188-25q-59 0-117.5 12.5T-35 23z"/><glyph unicode="K" horiz-adv-x="1062" d="M92 0v1434h258V797l51 24 301 613h291L666 829l-97-75 99-78L1047 0H731L406 614h-56V0H92z"/><glyph unicode="L" horiz-adv-x="868" d="M92 0v1434h258V238h504V0H92z"/><glyph unicode="M" horiz-adv-x="1359" d="M92 0v1434h248l299-621 49-178h8l47 182 281 617h244V0h-258v739l28 275h-10l-76-246-233-504h-86L385 770l-76 248h-12l39-277V0H92z"/><glyph unicode="N" horiz-adv-x="1105" d="M92 0v1444h199l411-721 89-248h12l-33 244v715h244V-10H815L408 705l-95 251h-10l33-247V0H92z"/><glyph unicode="O" horiz-adv-x="1132" d="M59 717q0 365 125 555t381 190q133 0 229.5-52t158-149.5 91-235.5 29.5-308q0-365-128-555.5T565-29q-135 0-230 52.5T178.5 173 88 408.5 59 717zm271 0q0-109 12-202t41-160.5T456 248t109-39q119 0 178.5 121T803 717q0 104-12.5 197.5t-40 162T678 1185t-113 40q-235 0-235-508z"/><glyph unicode="P" horiz-adv-x="976" d="M92 0v1419q74 16 162 25.5t176 9.5q94 0 185.5-17.5t163-68.5T895 1223.5 940 981q0-135-38-229.5T800.5 598 654 512t-171-27h-26q-18 0-39 1t-40.5 3.5T350 494V0H92zm258 725q12-4 46-7t46-3q45 0 86 12t73 42 50.5 82T670 983q0 68-17.5 115t-47.5 74.5-68.5 40T455 1225q-63 0-105-11V725z"/><glyph unicode="Q" horiz-adv-x="1132" d="M59 717q0 365 125 555t381 190q133 0 229.5-52t158-149.5 91-235.5 29.5-308q0-365-128-555.5T565-29q-135 0-230 52.5T178.5 173 88 408.5 59 717zm271 0q0-109 12-202t41-160.5T456 248t109-39q119 0 178.5 121T803 717q0 104-12.5 197.5t-40 162T678 1185t-113 40q-235 0-235-508zm8-793q49 12 98 13 70 0 140.5-20.5T720-128t149.5-44.5T1030-193q37 0 76 5.5t80 17.5v-231q-41-14-83-20.5t-83-6.5q-86 0-167 20.5t-156.5 46-146.5 46T416-295q-20 0-40-2t-38-8v229z"/><glyph unicode="R" horiz-adv-x="1030" d="M92 0v1419q84 18 180.5 26.5T438 1454q88 0 172-17.5t148.5-63.5T863 1248t40-199q0-174-64.5-284T662 614l81-65L1008 0H711L461 565l-111 27V0H92zm258 768h88q96 0 145.5 58.5T633 1008q0 92-41 150.5T463 1217q-33 0-63.5-2.5T350 1206V768z"/><glyph unicode="S" horiz-adv-x="899" d="M39 51l84 232q41-25 112.5-49.5T389 209q205 0 205 160 0 66-39 111.5T457.5 567t-127 84-127 100.5-97 135.5T68 1077q0 104 31.5 177t87 119 131 67.5T479 1462q104 0 194.5-20.5T823 1386l-80-227q-35 25-103.5 45.5T492 1225q-80 0-123-33t-43-96q0-57 38.5-101.5T462 909l127-85q69-44 127-102t97-137 39-188-32-188.5T730 77 590-2 408-29Q281-29 185.5-4.5T39 51z"/><glyph unicode="T" horiz-adv-x="968" d="M16 1196v238h936v-238H614V0H356v1196H16z"/><glyph unicode="U" horiz-adv-x="1054" d="M86 469v965h258V514q0-168 45-234.5T539 213q100 0 143 70.5T725 514v920h244V504q0-279-114-404T541-25Q305-25 195.5 97T86 469z"/><glyph unicode="V" horiz-adv-x="1030" d="M-20 1434h305l213-842 28-246h9l32 248 209 840h273L614-10H418z"/><glyph unicode="W" horiz-adv-x="1468" d="M-4 1434h285l139-789 20-258h9l22 262 193 785h180l186-789 23-258h8l22 262 127 785h263L1151-10H969L768 780l-27 224h-10l-24-226L506-10H315z"/><glyph unicode="X" horiz-adv-x="1081" d="M12 0l350 729-317 705h311l166-410 39-156 37 156 174 410h279L723 743 1067 0H766L573 440l-43 160-41-160L297 0H12z"/><glyph unicode="Y" horiz-adv-x="1013" d="M-8 1434h307l199-543 20-156h10l23 160 194 539h277L635 535V0H377v532z"/><glyph unicode="Z" horiz-adv-x="911" d="M43 0v238l479 874 86 84H43v238h825v-238L387 315l-84-77h565V0H43z"/><glyph unicode="[" horiz-adv-x="565" d="M92-471v1905h426v-211H328V-260h190v-211H92z"/><glyph unicode="\" horiz-adv-x="741" d="M-37 1384l193 72L764-211l-191-76z"/><glyph unicode="]" horiz-adv-x="563" d="M47-260h189v1483H47v211h424V-471H47v211z"/><glyph unicode="^" horiz-adv-x="876" d="M37 846l334 598h139l317-598H584l-115 250-35 149-43-151-121-248H37z"/><glyph unicode="_" horiz-adv-x="765" d="M0-250h766v-209H0v209z"/><glyph unicode="`" horiz-adv-x="593" d="M123 1413v62h248l100-316H336z"/><glyph unicode="a" horiz-adv-x="845" d="M35 283q0 184 131 262 113 67 295 67 29 0 59-2 3 34 3 63 0 71-18 109-26 53-110 54-61 0-126.5-14.5T152 780L90 963q61 37 153.5 59t209.5 22q174 0 242.5-90T764 698q0-96-5-189t-7-182q-1-25-1-51 0-62 4-121 5-83 27-157H584l-39 125h-8q-33-59-92.5-98T295-14q-121 0-190.5 81T35 283zm252 41q0-63 25.5-96t70.5-33q55 0 90 27.5t51 60.5v170q-28 4-55 3-18 0-35-1-43-4-75.5-18.5t-52-42T287 324z"/><glyph unicode="b" horiz-adv-x="907" d="M88 41v1393h244V958h6q74 90 211 91 145 0 226-121t81-389q0-291-114.5-427.5T428-25Q319-25 228-4.5T88 41zm244 180q43-23 112-22 78 0 119 74.5T604 524q0 156-32.5 228.5T469 825q-102 0-137-106V221z"/><glyph unicode="c" horiz-adv-x="716" d="M51 512q0 268 96.5 403.5T430 1051q92 0 150.5-16.5T684 993l-57-202q-37 18-71 27t-81 9q-86 0-129-74.5T303 512q0-139 44-227t140-88q51 0 87 13t67 34l51-189Q641 14 569.5-6.5T426-27q-104 0-175 38T135 119.5t-64.5 170T51 512z"/><glyph unicode="d" horiz-adv-x="911" d="M51 496q0 270 96.5 410.5T434 1047q49 0 82-6.5t64-20.5v414h243V360q0-86 2-172T842-2H670l-33 119h-8Q559-26 385-27 229-27 140 96.5T51 496zm252-9q0-141 34-215.5T442 197q55 0 88 27.5t50 80.5v483q-20 18-46 26.5t-67 8.5q-82 0-123-74t-41-262z"/><glyph unicode="e" horiz-adv-x="876" d="M51 512q0 276 109.5 408.5T465 1053q66 0 127-19.5T701.5 968t78-123T809 651q0-45-5-96t-16-111H291q4-127 53-194.5T502 182q66 0 120 20.5t83 43.5l75-170Q729 31 641 2T457-27q-106 0-183 37T147.5 116.5t-73 169T51 512zm248 94h283q1 19 1 38 0 89-26 139-31 60-96 61-78 0-117-62.5T299 606z"/><glyph unicode="f" horiz-adv-x="546" d="M16 807v217h111v57q0 195 72.5 282t208.5 87q135 0 225-37l-45-207q-37 14-65.5 17.5T463 1227q-59 0-75.5-46T371 1024h174V807H371V0H127v807H16z"/><glyph unicode="g" horiz-adv-x="907" d="M51 492q0 285 111.5 420T481 1047q111 0 199-17.5T821 987V0q0-223-102.5-328.5T434-434q-127 0-198.5 19.5T125-373l51 207q45-18 97.5-34.5T397-217q104 0 144.5 56.5T582 10v56h-7q-29-41-76.5-61.5T375-16q-162 0-243 122T51 492zm252 10q0-309 139-309 55 0 87 26.5t49 75.5v512q-23 10-50.5 16t-64.5 6q-76 0-118-73.5T303 502z"/><glyph unicode="h" horiz-adv-x="919" d="M88 0v1434h244V932h6q41 53 99.5 86t146.5 33q63 0 110-18.5t80-61.5 49.5-116T840 672V0H596v618q0 111-25.5 160T477 827q-49 0-90-34.5T332 705V0H88z"/><glyph unicode="i" horiz-adv-x="460" d="M109 1024h243V0H109v1024zm-29 289q0 61 39 101t110 40q72 0 115-39t43-102-43-100-115-37-110.5 38-38.5 99z"/><glyph unicode="j" horiz-adv-x="460" d="M111 1024h243V-43q0-186-64.5-284.5T84-426q-57 0-117 14v217q88-8 116 50.5T111 29v995zm-31 289q0 61 39 101t110 40q72 0 115-39t43-102-43-100-115-37-110.5 38-38.5 99z"/><glyph unicode="k" horiz-adv-x="843" d="M88 0v1434h244V588l49 28 170 408h264L627 618l-88-69 96-70L844 0H569L389 424h-57V0H88z"/><glyph unicode="l" horiz-adv-x="497" d="M92 201v1233h244V332q0-72 14.5-102.5T397 199q18 0 38 4t44 14l23-197q-25-16-84.5-30.5T297-25q-102 0-153.5 51.5T92 201z"/><glyph unicode="m" horiz-adv-x="1357" d="M88 0v1024h188l31-123h6q39 63 97.5 105.5T565 1049q80 0 130-35t79-123q39 74 102.5 116t149.5 42q68 0 116-17.5t77.5-60.5 44-118 14.5-189V0h-244v623q0 104-18.5 153T934 825q-51 0-83-29.5T805 715V0H561v596q0 129-20.5 179T461 825q-49 0-81-31.5T332 717V0H88z"/><glyph unicode="n" horiz-adv-x="919" d="M88 0v1024h195l28-119h6q37 59 100.5 101.5T584 1049q61 0 109-18.5t81-60.5 49.5-113T840 682V0H596v623q0 113-26.5 157.5T479 825q-53 0-92-32.5T332 711V0H88z"/><glyph unicode="o" horiz-adv-x="911" d="M51 512q0 272 106.5 405.5T455 1051q205 0 305-135.5T860 512q0-274-106.5-406.5T455-27Q51-27 51 512zm252 0q0-154 35-238t117-84q78 0 115.5 73T608 512q0 158-34.5 240T455 834q-72 0-112-73t-40-249z"/><glyph unicode="p" horiz-adv-x="915" d="M88-410v1434h182l25-117h6q47 74 105.5 108t144.5 34q156 0 234.5-118T864 539t-98-421T481-29q-49 0-84 8.5T332 6v-416H88zm244 639q20-20 45.5-30.5T444 188q82 0 125 81t43 276q0 145-32.5 215.5T471 831q-102 0-139-120V229z"/><glyph unicode="q" horiz-adv-x="907" d="M51 492q0 274 117 414.5T500 1047q92 0 181-18.5T821 987V-410H578V72h-9q-29-45-74.5-73T371-29q-152 0-236 129.5T51 492zm252 10q0-313 139-314 55 0 87 28t49 79v510q-43 25-115 24-80 0-120-76.5T303 502z"/><glyph unicode="r" horiz-adv-x="600" d="M88 0v1024h186l29-123h8q27 68 77 105.5t116 37.5q49 0 96-20l-29-242q-49 18-90 19-55 0-95-31t-54-86V0H88z"/><glyph unicode="s" horiz-adv-x="716" d="M39 47l67 197q43-25 99.5-43.5T324 182q47 0 77.5 21.5T432 272q0 43-27.5 73T334 400l-91 53q-48 27-91 65.5t-71 94T53 752q0 143 78 221t229 78q90 0 170-19.5T657 983l-57-188q-39 16-94 31.5T397 842q-100 0-100-84 0-39 27.5-64.5T395 643l91-51q48-27 91.5-67t71-97T676 287q0-141-86-227.5T334-27q-84 0-165 20.5T39 47z"/><glyph unicode="t" horiz-adv-x="595" d="M8 807v217h113v193l244 75v-268h198V807H365V360q0-88 17-124.5t62-36.5q31 0 55.5 6t53.5 18l31-194Q539 6 479.5-9.5T354-25q-117 0-175 68t-58 227v537H8z"/><glyph unicode="u" horiz-adv-x="913" d="M80 358v666h244V412q0-121 22.5-168t81.5-47q57 0 96 42t56 101v684h243V311q0-84 6.5-164.5T852 0H668l-43 139h-7Q579 67 512.5 20T348-27q-63 0-112.5 17.5t-84 60.5-53 117.5T80 358z"/><glyph unicode="v" horiz-adv-x="817" d="M-27 1024h285l141-535 25-161h8l23 164 127 532h262L500-10H336z"/><glyph unicode="w" horiz-adv-x="1220" d="M-14 1024h264l110-514 19-182h8l27 184 125 512h182l143-524 25-170h8l21 172 96 522h221L983-10H791L637 561l-16 131h-13l-14-135L446-10H248z"/><glyph unicode="x" horiz-adv-x="899" d="M8 0l264 524-243 500h286l105-242 39-131 43 131 106 242h264L627 532 889 0H612L487 266l-45 146-47-146L270 0H8z"/><glyph unicode="y" horiz-adv-x="819" d="M-20 1024h292l144-575 26-160h11l18 162 119 573h250L584 100q-35-121-66-217t-65.5-163.5T374-384t-106-36q-43 0-83 7t-68 24l41 209q27-10 54.5-9t51 20 42 60T336 0z"/><glyph unicode="z" horiz-adv-x="780" d="M49 0v217l332 502 90 88H49v217h678V807L399 297l-88-80h416V0H49z"/><glyph unicode="{" horiz-adv-x="641" d="M66 383v197q66 0 100.5 42T201 754v438q0 109 42 176.5t144 67.5h219v-209h-84q-47 0-67.5-29t-20.5-94V688q0-90-34.5-136T317 496v-21q47-8 82-61.5T434 274v-413q0-63 19.5-93t70.5-30h82v-209H387q-186 0-186 242v430q0 104-34.5 143T66 383z"/><glyph unicode="|" horiz-adv-x="385" d="M92-266v1700h201V-266H92z"/><glyph unicode="}" horiz-adv-x="641" d="M35-262h84q47 0 67.5 28.5T207-139v415q0 90 34.5 136.5T324 469v20q-47 8-82 61.5T207 690v414q0 63-19.5 93t-70.5 30H35v209h219q186 0 186-240V764q0-104 35-143t100-39V385q-66 0-100.5-42T440 211v-440q0-111-44-176.5T248-471H35v209z"/><glyph unicode="~" horiz-adv-x="909" d="M47 774q80 78 145.5 107.5T313 911q49 0 92.5-16t82-36.5 76.5-37 79-16.5q31 0 62.5 13t66.5 44l90-211q-61-55-112.5-76.5T653 553q-47 0-89 17.5t-82 39-80 40-83 18.5q-41 0-87-21.5T131 569z"/><glyph unicode="¢" d="M143 512q0 225 83 361.5T465 1042v187h229v-187q88-14 144-49l-52-196q-25 10-54.5 17T674 825V197q41 6 71.5 18t53.5 27l49-185q-29-23-69-40t-85-27v-195H465v185Q377-6 315.5 38T216 151.5 160.5 312 143 512zm240 0q0-119 31.5-199T516 205v616q-66-23-99.5-97.5T383 512z"/><glyph unicode="£" d="M90 0v223h4q51 2 92 24.5t68 59.5 41 84 14 98q0 59-12 109H90v205h123q-25 53-43 118.5T152 1081q0 98 28.5 170t78.5 119 120 69.5 153 22.5q104 0 189.5-20.5T872 1386l-77-210q-35 20-91.5 37.5T569 1231t-122-47-44-146q0-72 21.5-126T475 803h240V598H545q4-20 6-39.5t2-42.5q0-59-18.5-129T481 274l-92-71v-13l135 33h375V0H90z"/><glyph unicode="¥" d="M-25 1434h308l198-543 21-156h10l23 160 194 539h277L684 688h160V526H618V408h226V246H618V0H360v246H135v162h225v118H135v162h158z"/><glyph unicode="©" horiz-adv-x="1484" d="M104 610q0 147 49.5 265T289 1076t202.5 127 251.5 44q133 0 250-44t203-127 135-200.5 49-265.5q0-147-49-265t-135-201T993.5 17 743-27q-147 0-266 44T275.5 144t-127 201T104 610zm177 0q0-111 33.5-197.5t95-148T556 170t187-33q100 0 185.5 33t147 94.5 95 148.5 33.5 197q0 111-33.5 198t-95 148.5-146.5 94-186 32.5q-102 0-187-32.5t-146.5-94-95-148.5T281 610zm165 0q0 160 80 248t213 88q66 0 116-15.5t97-41.5l-57-158q-31 16-57.5 21.5T788 758q-51 0-78.5-35T682 610q0-147 119-147 59 0 110 26l54-159q-39-25-98.5-40.5T739 274q-141 0-217 91t-76 245z"/><glyph unicode="­" horiz-adv-x="610" d="M92 471v234h426V471H92z"/><glyph unicode="®" horiz-adv-x="1218" d="M111 989q0 119 39.5 212T259 1357.5t159 96.5 192 33q104 0 194.5-33t158-96.5T1069 1201t39-212-40-212-107.5-156.5-158.5-96T610 492q-104 0-195 32.5t-159 96T149.5 777 111 989zm168 0q0-86 26.5-149.5T378 734t105.5-62.5T610 651q70 0 130.5 20.5T846 733t69.5 105.5T940 989t-26.5 149.5T842 1244t-104.5 63.5T610 1329q-150 0-240.5-90T279 989zm149-227v457q29 8 80 13t96 5q74 0 127-30.5t53-106.5q0-55-35.5-86T659 979l50-25 114-192H715L604 946l-84 27V762h-92zm92 264h60q53 0 79.5 15.5T686 1096q0 61-100 61-20 0-38-1t-28-7v-123z"/><glyph unicode="´" horiz-adv-x="575" d="M123 1159l86 316h244v-62l-193-254H123z"/><glyph unicode="º" horiz-adv-x="716" d="M51 1110q0 94 22.5 159.5T137 1377t97.5 61.5T358 1458q68 0 124.5-17.5T580 1382t64.5-107.5T668 1110t-23.5-164.5T580 838t-97.5-58.5T358 762t-124 17.5-97 58.5-63.5 107.5T51 1110zm217 0q0-98 21.5-138t68.5-40q25 0 42.5 7t28.5 27.5 16.5 55.5 5.5 88q0 104-22.5 141t-70.5 37q-47 0-68.5-37T268 1110z"/><glyph unicode="ı" horiz-adv-x="460" d="M109 1024h243V0H109v1024z"/><glyph unicode="ȷ" horiz-adv-x="460" d="M111 1024h243V-43q0-186-64.5-284.5T84-426q-57 0-117 14v217q88-8 116 50.5T111 29v995z"/><glyph unicode="˙" horiz-adv-x="552" d="M123 1313q0 61 39 101t110 40q72 0 115-39t43-102-43-100-115-37-110.5 38-38.5 99z"/><glyph horiz-adv-x="819"/><glyph horiz-adv-x="1638"/><glyph horiz-adv-x="819"/><glyph horiz-adv-x="1638"/><glyph horiz-adv-x="544"/><glyph horiz-adv-x="409"/><glyph horiz-adv-x="272"/><glyph horiz-adv-x="272"/><glyph horiz-adv-x="204"/><glyph horiz-adv-x="327"/><glyph horiz-adv-x="90"/><glyph unicode="‐" horiz-adv-x="610" d="M92 471v234h426V471H92z"/><glyph unicode="‑" horiz-adv-x="610" d="M92 471v234h426V471H92z"/><glyph unicode="‒" horiz-adv-x="610" d="M92 471v234h426V471H92z"/><glyph unicode="–" horiz-adv-x="1112" d="M178 479v223h754V479H178z"/><glyph unicode="—" horiz-adv-x="1384" d="M180 479v223h1022V479H180z"/><glyph unicode="‘" horiz-adv-x="389" d="M59 1309q0 80 22.5 137t55.5 96 67 61.5 58 32.5l66-104q-35-18-62.5-55t-32.5-80q35-4 64-38t29-93-36-95-89-36q-66 0-104 48t-38 126z"/><glyph unicode="’" horiz-adv-x="385" d="M59 1319q0 59 36 96t89 37q66 0 104-46t38-128q0-80-22.5-135.5t-54.5-93-67-60-59-33.5l-62 103q35 16 62 49t31 80q-35 2-65 33.5T59 1319z"/><glyph unicode="“" horiz-adv-x="702" d="M372 1309q0 80 22.5 137t55.5 96 67 61.5 58 32.5l66-104q-35-18-62.5-55t-32.5-80q35-4 64-38t29-93-36-95-89-36q-66 0-104 48t-38 126zm-313 0q0 80 22.5 137t55.5 96 67 61.5 58 32.5l66-104q-35-18-62.5-55t-32.5-80q35-4 64-38t29-93-36-95-89-36q-66 0-104 48t-38 126z"/><glyph unicode="”" horiz-adv-x="698" d="M372 1319q0 59 36 96t89 37q66 0 104-46t38-128q0-80-22.5-135.5t-54.5-93-67-60-59-33.5l-62 103q35 16 62 49t31 80q-35 2-65 33.5t-30 97.5zm-313 0q0 59 36 96t89 37q66 0 104-46t38-128q0-80-22.5-135.5t-54.5-93-67-60-59-33.5l-62 103q35 16 62 49t31 80q-35 2-65 33.5T59 1319z"/><glyph unicode="•" horiz-adv-x="761" d="M117 637q0 70 19.5 128t54 99 83 63.5T379 950q117 0 191.5-81T645 637q0-150-74.5-230.5T379 326q-115 0-188.5 80.5T117 637z"/><glyph unicode="…" horiz-adv-x="1476" d="M92 133q0 76 40 115t106 39q72 0 110.5-39T387 133q0-74-40-115T238-23q-68 0-107 41T92 133zm506 0q0 76 40 115t105 39q72 0 111-39t39-115q0-74-40-115T743-23q-68 0-106.5 41T598 133zm504 0q0 76 40 115t105 39q72 0 111-39t39-115q0-74-40-115t-110-41q-68 0-106.5 41T1102 133z"/><glyph horiz-adv-x="327"/><glyph horiz-adv-x="409"/><glyph unicode="€" d="M6 479l60 187h81v118H6l60 187h102q8 47 22 90 43 143 116 232t166 129 196 40q86 0 152.5-14t113.5-33l-66-205q-72 33-194 33-135 0-215-125-37-57-58-147h426l-47-187H379V666h366l-47-187H399q18-90 56-153 76-133 237-133 129 0 211 53l49-197Q899 10 816-8.5T657-27q-113 0-206 43T290.5 150.5 184 381q-12 47-20 98H6z"/><glyph unicode="™" horiz-adv-x="1640" d="M51 1217v217h625v-217H485V696H242v521H51zm680-521v738h246l147-293 37-129h2l39 133 135 289h244V696h-209v295l31 211h-10l-60-174-104-240h-154l-106 234-66 180h-10l43-207V696H731z"/><glyph unicode="−" horiz-adv-x="909" d="M78 805h753V588H78v217z"/><glyph unicode="" horiz-adv-x="1025" d="M0 1025h1025V0H0v1025z"/><glyph unicode="ﬁ" horiz-adv-x="942" d="M18 807v217h111v57q0 195 85 284t249 89q119 0 213-19.5t153-50.5l-63-200q-49 25-111.5 39T520 1237q-47 0-75.5-14.5t-45-42T378 1113t-5-89h473V0H602v807H373V0H129v807H18z"/><glyph unicode="ﬂ" horiz-adv-x="1007" d="M18 807v217h111v57q0 96 18.5 168t60.5 119 109.5 69.5T481 1460q41 0 93.5-4t103.5-9 95-11 69-13V330q0-135 61-135 18 0 36.5 4t45.5 16l27-195q-29-16-86.5-32.5T801-29q-100 0-151.5 52.5T598 199v1030q-18 4-51 9t-64 5q-72 0-91-53t-19-166h116V807H373V0H129v807H18z"/><glyph unicode="ﬃ" horiz-adv-x="1554" d="M1203 1024h243V0h-243v1024zm-29 289q0 61 39 101t110 40q72 0 115-39t43-102-43-100-115-37-110.5 38-38.5 99zM563 807v217h111v57q0 195 72.5 282t208.5 87q135 0 225-37l-45-207q-37 14-65.5 17.5t-59.5 3.5q-59 0-75.5-46T918 1024h174V807H918V0H674v807H563zm-547 0v217h111v57q0 195 72.5 282t208.5 87q135 0 225-37l-45-207q-37 14-65.5 17.5T463 1227q-59 0-75.5-46T371 1024h174V807H371V0H127v807H16z"/><glyph unicode="ﬄ" horiz-adv-x="1591" d="M1186 201v1233h244V332q0-72 14.5-102.5T1491 199q18 0 38 4t44 14l23-197q-25-16-84.5-30.5T1391-25q-102 0-153.5 51.5T1186 201zM563 807v217h111v57q0 195 72.5 282t208.5 87q135 0 225-37l-45-207q-37 14-65.5 17.5t-59.5 3.5q-59 0-75.5-46T918 1024h174V807H918V0H674v807H563zm-547 0v217h111v57q0 195 72.5 282t208.5 87q135 0 225-37l-45-207q-37 14-65.5 17.5T463 1227q-59 0-75.5-46T371 1024h174V807H371V0H127v807H16z"/><glyph horiz-adv-x="309" d="M586 1462l143-119L-283-29-428 92z"/></font>
</defs>
</svg>
